<?xml version="1.0" standalone="no"?>
<!DOCTYPE svg PUBLIC "-//W3C//DTD SVG 20010904//EN"
 "http://www.w3.org/TR/2001/REC-SVG-20010904/DTD/svg10.dtd">
<svg version="1.0" xmlns="http://www.w3.org/2000/svg"
 width="971.000000pt" height="971.000000pt" viewBox="0 0 971.000000 971.000000"
 preserveAspectRatio="xMidYMid meet">
<metadata>
Created by potrace 1.14, written by Peter Selinger 2001-2017
</metadata>
<g transform="translate(0.000000,971.000000) scale(0.100000,-0.100000)"
fill="#000000" stroke="none">
<path d="M3230 9290 l0 -410 -730 0 -730 0 0 -405 0 -405 -460 0 -460 0 0
-810 0 -810 -410 0 -410 0 0 -1610 0 -1610 410 0 410 0 0 -735 0 -735 460 0
460 0 0 -440 0 -440 755 0 755 0 0 -440 0 -440 1570 0 1570 0 0 440 0 440 755
0 755 0 0 440 0 440 460 0 460 0 0 735 0 735 420 0 420 0 0 1610 0 1610 -420
0 -420 0 0 810 0 810 -460 0 -460 0 0 405 0 405 -730 0 -730 0 0 410 0 410
-1620 0 -1620 0 0 -410z m820 -1610 l0 -390 405 0 405 0 0 -420 0 -420 -405 0
-405 0 0 -355 0 -355 -410 0 -410 0 0 355 0 355 -380 0 -380 0 0 420 0 420
380 0 380 0 0 390 0 390 410 0 410 0 0 -390z m1550 -3600 l0 -850 1165 0 1165
0 0 395 0 395 460 0 460 0 0 -395 0 -395 -460 0 -460 0 0 -735 0 -735 -755 0
-755 0 0 -440 0 -440 -1570 0 -1570 0 0 440 0 440 -755 0 -755 0 0 735 0 735
-460 0 -460 0 0 400 0 400 460 0 460 0 0 -400 0 -400 1140 0 1140 0 0 850 0
850 775 0 775 0 0 -850z"/>
<path d="M4050 2820 l0 -410 775 0 775 0 0 410 0 410 -775 0 -775 0 0 -410z"/>
</g>
</svg>
